<?xml version="1.0" standalone="no"?>
<!DOCTYPE svg PUBLIC "-//W3C//DTD SVG 20010904//EN"
 "http://www.w3.org/TR/2001/REC-SVG-20010904/DTD/svg10.dtd">
<svg version="1.0" xmlns="http://www.w3.org/2000/svg"
 width="670.000000pt" height="373.000000pt" viewBox="0 0 670.000000 373.000000"
 preserveAspectRatio="xMidYMid meet">

<g transform="translate(0.000000,373.000000) scale(0.100000,-0.100000)"
fill="#000000" stroke="none">
<path d="M2647 3722 c-20 -2 -32 -13 -44 -36 -14 -31 -14 -38 2 -87 10 -30 33
-89 52 -132 18 -43 33 -87 33 -97 0 -10 5 -22 10 -25 19 -12 10 -35 -14 -35
-68 0 -235 -38 -311 -71 -184 -80 -454 -373 -597 -647 -73 -142 -108 -239
-168 -472 -38 -147 -38 -511 0 -680 48 -215 123 -410 219 -570 202 -338 564
-638 918 -759 243 -84 491 -119 710 -100 413 34 704 148 1017 398 57 46 206
195 251 251 294 369 433 824 390 1277 -8 78 -18 159 -24 180 -5 21 -17 67 -26
103 -57 231 -194 500 -344 680 -62 74 -233 238 -284 274 -93 63 -201 102 -336
121 -57 7 -106 17 -109 20 -4 3 -1 15 6 25 7 11 12 25 12 31 0 11 34 103 76
202 28 69 30 94 6 125 -26 34 -83 32 -157 -6 -33 -17 -89 -44 -125 -60 -394
-179 -446 -202 -458 -202 -15 0 -258 107 -472 207 -172 81 -196 90 -233 85z
m1235 -234 c-7 -7 -12 -22 -12 -34 0 -13 -4 -26 -10 -29 -5 -3 -10 -16 -10
-28 0 -12 -7 -31 -15 -41 -21 -28 -19 -101 3 -134 54 -78 78 -115 87 -130 5
-9 20 -31 32 -49 13 -17 23 -36 23 -42 0 -6 3 -11 8 -11 4 0 16 -17 27 -37 11
-21 26 -44 33 -52 20 -20 8 -23 -24 -7 -16 9 -47 23 -69 31 -22 9 -53 22 -70
29 -62 27 -82 35 -140 57 -33 13 -64 27 -70 31 -5 4 -23 8 -41 8 -24 0 -39 -8
-59 -32 -49 -62 -115 -156 -141 -203 -9 -16 -23 -35 -30 -42 -7 -8 -21 -27
-31 -43 -9 -17 -20 -30 -23 -30 -4 0 -16 17 -29 38 -12 20 -42 64 -66 97 -25
33 -52 74 -61 90 -9 17 -35 51 -56 78 -49 57 -67 59 -169 16 -41 -17 -85 -36
-99 -41 -27 -11 -71 -29 -110 -46 -111 -48 -119 -50 -113 -36 3 8 9 14 14 14
5 0 9 5 9 12 0 6 11 26 25 44 14 18 25 36 25 39 0 3 11 21 25 39 14 18 25 38
25 44 0 6 3 12 8 14 4 2 20 23 36 48 16 25 38 58 48 73 23 34 21 96 -7 167 -9
25 -21 57 -25 72 -10 32 -10 32 105 -22 44 -21 98 -45 120 -55 39 -17 135 -61
226 -104 58 -27 83 -26 140 3 26 12 55 26 65 29 11 4 26 10 34 15 14 9 36 19
125 57 61 27 208 95 225 105 21 13 26 12 12 -2z m652 -762 c40 -17 55 -60 36
-106 -24 -59 -116 -57 -138 3 -21 57 3 99 66 116 1 1 18 -5 36 -13z m149 -206
c9 -11 17 -23 17 -27 0 -3 6 -14 13 -22 13 -15 49 -100 82 -191 75 -208 102
-461 74 -681 -12 -96 -37 -228 -46 -242 -3 -5 -9 -23 -13 -41 -22 -84 -120
-297 -172 -370 -120 -170 -227 -286 -343 -371 -21 -17 -46 -36 -55 -43 -78
-67 -149 -80 -187 -35 -43 50 -25 87 81 157 55 37 216 174 216 184 0 4 21 29
45 55 25 26 57 67 72 90 14 23 29 44 33 47 4 3 23 36 44 74 20 38 40 74 45 80
4 6 11 20 14 31 3 11 20 58 37 105 36 96 44 130 65 285 18 137 19 211 1 345
-23 175 -58 288 -135 447 -27 55 -26 84 4 117 30 33 82 36 108 6z"/>
</g>
</svg>
